<?xml version="1.0" standalone="no"?>
<!DOCTYPE svg PUBLIC "-//W3C//DTD SVG 20010904//EN"
 "http://www.w3.org/TR/2001/REC-SVG-20010904/DTD/svg10.dtd">
<svg version="1.0" xmlns="http://www.w3.org/2000/svg"
 width="256.000000pt" height="256.000000pt" viewBox="0 0 256.000000 256.000000"
 preserveAspectRatio="xMidYMid meet">
<metadata>
Created by potrace 1.14, written by Peter Selinger 2001-2017
</metadata>
<g transform="translate(0.000000,256.000000) scale(0.100000,-0.100000)"
fill="#000000" stroke="none">
<path d="M1150 2555 c-8 -2 -49 -9 -90 -16 -41 -7 -77 -13 -80 -14 -435 -110
-774 -423 -914 -845 -50 -152 -64 -249 -61 -420 2 -80 5 -154 8 -165 3 -11 8
-40 13 -65 4 -25 8 -47 9 -50 1 -3 5 -18 9 -35 4 -16 10 -37 13 -45 3 -8 7
-19 9 -25 10 -41 42 -113 83 -191 187 -355 541 -609 931 -667 93 -14 346 -16
400 -3 14 3 39 9 55 11 223 39 485 182 660 360 169 173 293 408 341 647 19 97
27 336 13 423 -24 152 -60 265 -132 408 -170 341 -509 597 -889 673 -72 14
-335 27 -378 19z m517 -527 c7 -6 13 -22 13 -36 0 -15 -43 -178 -95 -364 -52
-185 -95 -339 -95 -342 0 -3 80 -6 178 -6 195 0 212 -4 218 -56 6 -55 30 -35
-601 -483 -164 -118 -312 -218 -327 -223 -39 -14 -78 12 -78 50 0 15 34 147
75 292 41 146 75 271 75 278 0 10 35 31 60 36 26 5 280 100 277 103 -3 2 -151
4 -329 4 -261 -1 -328 2 -343 13 -23 17 -26 76 -5 102 13 14 681 495 859 618
56 38 86 41 118 14z"/>
</g>
</svg>
